#!OML:ASF F:\twosubjects\two\Thursday\Session 1\Rory.ASF
:FULLY-SPECIFIED
:DEGREES
632
root 11.387 18.8926 10.0483 -150.202 -81.8979 151.9
lowerback -6.07338 -1.31398 -5.30753
upperback 0.341908 -1.32188 -3.53166
thorax 3.80102 -0.764527 -0.807373
lowerneck 2.70529 -12.6088 -13.5774
upperneck -5.00983 -17.2807 19.7112
head 1.0859 -8.93504 7.69988
rclavicle 1.35049e-014 -2.94201e-014
rhumerus 19.7595 -0.505128 -52.0575
rradius 131.067
rwrist 12.0832
rhand -33.6114 33.9434
rfingers 7.12502
rthumb -6.80447 4.07275
lclavicle 1.35049e-014 -2.94201e-014
lhumerus -39.9233 -10.1924 82.7632
lradius 118.542
lwrist -18.0167
lhand -18.9085 46.0634
lfingers 7.12502
lthumb 7.39343 75.9142
rfemur -0.417437 10.5895 11.8812
rtibia 9.45446
rfoot -7.40254 -8.93994
rtoes -14.055
lfemur 1.17759 -6.15143 -19.8532
ltibia 8.87832
lfoot -11.6024 12.6357
ltoes 15.0012
633
root 11.3876 18.8977 10.0459 -150.036 -81.7896 151.733
lowerback -6.09545 -1.24466 -5.40264
upperback 0.311021 -1.22367 -3.6224
thorax 3.77883 -0.717972 -0.839305
lowerneck 3.07169 -12.5939 -13.2146
upperneck -5.56014 -17.2048 19.3906
head 0.790089 -8.92395 7.60993
rclavicle -2.10463e-014 2.38542e-015
rhumerus 19.9613 -0.990136 -52.4182
rradius 130.894
rwrist 12.1887
rhand -33.5239 32.4739
rfingers 7.12502
rthumb -6.71999 2.60052
lclavicle -2.10463e-014 2.38542e-015
lhumerus -40.0032 -10.4982 82.7315
lradius 118.507
lwrist -17.9383
lhand -19.2117 46.1135
lfingers 7.12502
lthumb 7.10076 75.9744
rfemur -0.310913 10.6823 11.7917
rtibia 9.19613
rfoot -7.21443 -8.93449
rtoes -13.5928
lfemur 1.18939 -6.06941 -19.9165
ltibia 9.03811
lfoot -11.8944 12.3501
ltoes 16.6461
634
root 11.3896 18.9011 10.0442 -152.055 -81.9043 153.717
lowerback -6.02574 -1.16901 -5.133
upperback 0.29097 -1.14725 -3.5946
thorax 3.71156 -0.672636 -0.950786
lowerneck 3.37262 -12.6513 -12.7592
upperneck -6.1063 -17.2181 18.9894
head 0.504478 -8.95247 7.47151
rclavicle 4.54037e-014 6.20208e-014
rhumerus 20.1015 -1.3927 -52.302
rradius 130.704
rwrist 12.3048
rhand -33.2933 32.6853
rfingers 7.12502
rthumb -6.49733 2.80494
lclavicle 4.54037e-014 6.20208e-014
lhumerus -40.0993 -10.8188 82.6628
lradius 118.553
lwrist -17.8253
lhand -19.2023 46.2573
lfingers 7.12502
lthumb 7.10983 76.1179
rfemur -0.140024 10.7385 12.1609
rtibia 8.9634
rfoot -7.02613 -8.91069
rtoes -13.5882
lfemur 1.22301 -6.03454 -19.5396
ltibia 9.26382
lfoot -12.4878 11.8246
ltoes 19.7406
635
root 11.3944 18.8994 10.0447 -153.364 -81.9101 155.093
lowerback -6.02627 -1.13813 -5.00263
upperback 0.264491 -1.11625 -3.5088
thorax 3.68265 -0.653286 -0.930719
lowerneck 3.50427 -12.6862 -12.8721
upperneck -6.5768 -17.231 19.0631
head 0.36753 -8.97464 7.53844
rclavicle -3.51538e-014 1.03368e-014
rhumerus 20.3055 -1.65089 -52.349
rradius 130.48
rwrist 12.4113
rhand -33.1389 34.4732
rfingers 7.12502
rthumb -6.34835 4.58834
lclavicle -3.51538e-014 1.03368e-014
lhumerus -40.1645 -10.9232 82.7004
lradius 118.621
lwrist -17.7132
lhand -19.3197 46.3669
lfingers 7.12502
lthumb 6.99659 76.2312
rfemur -0.163958 10.8267 12.3452
rtibia 8.87029
rfoot -6.95939 -8.9282
rtoes -13.1043
lfemur 1.10093 -5.95067 -19.3283
ltibia 9.37406
lfoot -12.4642 11.7453
ltoes 19.4502
636
root 11.3982 18.8952 10.048 -152.692 -81.8688 154.449
lowerback -6.0406 -1.17311 -5.12432
upperback 0.275693 -1.15319 -3.48116
thorax 3.70629 -0.674551 -0.838372
lowerneck 3.47022 -12.7004 -13.2377
upperneck -6.83147 -17.2421 19.3906
head 0.368428 -8.98749 7.69403
rclavicle -5.81445e-015 1.35174e-014
rhumerus 20.5629 -1.96107 -52.3254
rradius 130.374
rwrist 12.1985
rhand -32.5089 35.767
rfingers 7.12502
rthumb -5.74006 5.86476
lclavicle -5.81445e-015 1.35174e-014
lhumerus -40.1384 -10.9169 82.8309
lradius 118.558
lwrist -17.6674
lhand -19.3076 46.0585
lfingers 7.12502
lthumb 7.0082 75.9225
rfemur -0.119027 10.8289 12.1962
rtibia 8.70857
rfoot -6.99614 -8.85473
rtoes -11.8013
lfemur 0.877557 -5.95424 -19.4843
ltibia 9.56316
lfoot -12.1 12.1819
ltoes 16.5426
637
root 11.4001 18.8942 10.0558 -152.274 -81.9581 153.966
lowerback -5.97489 -1.25284 -5.08455
upperback 0.324764 -1.26382 -3.46616
thorax 3.72246 -0.729008 -0.854678
lowerneck 3.59018 -12.6835 -13.3307
upperneck -7.24148 -17.1925 19.532
head 0.2463 -8.98043 7.781
rclavicle 2.75068e-014 3.02153e-014
rhumerus 20.9475 -2.04562 -51.794
rradius 130.389
rwrist 12.1434
rhand -32.1668 35.3184
rfingers 7.12502
rthumb -5.40975 5.40747
lclavicle 2.75068e-014 3.02153e-014
lhumerus -40.0515 -10.791 82.8783
lradius 118.505
lwrist -17.7432
lhand -19.0299 45.7843
lfingers 7.12502
lthumb 7.27626 75.6392
rfemur -0.0444888 10.7388 12.1541
rtibia 8.69819
rfoot -7.09951 -8.91018
rtoes -12.566
lfemur 0.849778 -6.06503 -19.5484
ltibia 9.60152
lfoot -11.678 12.5434
ltoes 13.8036
638
root 11.3996 18.8971 10.0602 -152.161 -82.0178 153.828
lowerback -5.95205 -1.40126 -5.08778
upperback 0.336072 -1.46259 -3.40466
thorax 3.72775 -0.827525 -0.807328
lowerneck 3.77081 -12.5838 -13.5868
upperneck -7.69075 -17.0328 19.4743
head 0.0787578 -8.90813 7.84846
rclavicle 8.13464e-015 -4.77083e-015
rhumerus 21.5016 -1.56825 -52.0408
rradius 130.094
rwrist 12.813
rhand -32.0982 35.0318
rfingers 7.12502
rthumb -5.34358 5.11915
lclavicle 8.13464e-015 -4.77083e-015
lhumerus -40.0696 -10.4262 82.8472
lradius 118.548
lwrist -17.8549
lhand -18.9975 46.0208
lfingers 7.12502
lthumb 7.30759 75.8746
rfemur -0.0788939 10.6927 12.1587
rtibia 8.83944
rfoot -7.11942 -9.09253
rtoes -14.0042
lfemur 0.945505 -6.12713 -19.518
ltibia 9.52352
lfoot -11.9222 12.3321
ltoes 15.1139
